<svg xmlns="http://www.w3.org/2000/svg" viewBox="0 0 1024 1024"><defs><radialGradient id="glowBehind" cx="50%" cy="52%" r="42%"><stop offset="0%" style="stop-color:#fff;stop-opacity:.12"/><stop offset="100%" style="stop-color:#fff;stop-opacity:0"/></radialGradient><radialGradient id="starGlow" cx="78%" cy="18%" r="30%"><stop offset="0%" style="stop-color:#fff;stop-opacity:.08"/><stop offset="100%" style="stop-color:#fff;stop-opacity:0"/></radialGradient><radialGradient id="lightTopLeft" cx="20%" cy="15%" r="55%"><stop offset="0%" style="stop-color:#fff;stop-opacity:.18"/><stop offset="40%" style="stop-color:#fff;stop-opacity:.06"/><stop offset="100%" style="stop-color:#fff;stop-opacity:0"/></radialGradient><radialGradient id="shadowBottomRight" cx="85%" cy="90%" r="60%"><stop offset="0%" style="stop-color:#000;stop-opacity:.25"/><stop offset="50%" style="stop-color:#000;stop-opacity:.1"/><stop offset="100%" style="stop-color:#000;stop-opacity:0"/></radialGradient><radialGradient id="edgeVignette" cx="50%" cy="50%" r="60%"><stop offset="0%" style="stop-color:#000;stop-opacity:0"/><stop offset="75%" style="stop-color:#000;stop-opacity:0"/><stop offset="100%" style="stop-color:#000;stop-opacity:.2"/></radialGradient><radialGradient id="warmBloom" cx="48%" cy="50%" r="35%"><stop offset="0%" style="stop-color:#5da8e0;stop-opacity:.15"/><stop offset="60%" style="stop-color:#3382c1;stop-opacity:.05"/><stop offset="100%" style="stop-color:#2f5795;stop-opacity:0"/></radialGradient><linearGradient id="bgGradient" x1="0%" x2="100%" y1="0%" y2="100%"><stop offset="0%" style="stop-color:#3382c1;stop-opacity:1"/><stop offset="50%" style="stop-color:#2f5795;stop-opacity:1"/><stop offset="100%" style="stop-color:#253f72;stop-opacity:1"/></linearGradient><linearGradient id="rimLight" x1="0%" x2="50%" y1="0%" y2="50%"><stop offset="0%" style="stop-color:#fff;stop-opacity:.1"/><stop offset="100%" style="stop-color:#fff;stop-opacity:0"/></linearGradient><clipPath id="iconClip"><rect width="1024" height="1024" rx="228" ry="228"/></clipPath></defs><rect width="1024" height="1024" fill="url(#bgGradient)" rx="228" ry="228"/><g clip-path="url(#iconClip)"><path fill="url(#lightTopLeft)" d="M0 0h1024v1024H0z"/><path fill="url(#warmBloom)" d="M0 0h1024v1024H0z"/><path fill="url(#edgeVignette)" d="M0 0h1024v1024H0z"/><path fill="url(#shadowBottomRight)" d="M0 0h1024v1024H0z"/><path fill="url(#rimLight)" d="M0 0h1024v1024H0z"/><g fill="#fff"><circle cx="145" cy="180" r="1.8" opacity=".08"/><circle cx="290" cy="120" r="1.2" opacity=".06"/><circle cx="430" cy="95" r="1.5" opacity=".07"/><circle cx="580" cy="140" r="1" opacity=".05"/><circle cx="710" cy="85" r="1.3" opacity=".06"/><circle cx="870" cy="110" r="1" opacity=".05"/><circle cx="950" cy="165" r="1.2" opacity=".06"/><circle cx="110" cy="320" r="1.4" opacity=".07"/><circle cx="200" cy="450" r="1" opacity=".05"/><circle cx="160" cy="600" r="1.3" opacity=".06"/><circle cx="120" cy="750" r="1.1" opacity=".05"/><circle cx="250" cy="830" r="1" opacity=".04"/><circle cx="380" cy="880" r="1.2" opacity=".05"/><circle cx="530" cy="910" r="1" opacity=".04"/><circle cx="680" cy="870" r="1.1" opacity=".05"/><circle cx="820" cy="820" r="1" opacity=".04"/><circle cx="900" cy="700" r="1.2" opacity=".05"/><circle cx="940" cy="550" r="1" opacity=".04"/><circle cx="920" cy="400" r="1.3" opacity=".05"/><circle cx="350" cy="160" r="1.1" opacity=".06"/><circle cx="500" cy="200" r="1" opacity=".05"/><circle cx="650" cy="175" r="1.2" opacity=".06"/><circle cx="180" cy="250" r="1" opacity=".05"/><circle cx="190" cy="155" r="2" opacity=".12"/><circle cx="340" cy="105" r="1.5" opacity=".1"/><circle cx="480" cy="130" r="1.8" opacity=".1"/><circle cx="620" cy="100" r="1.4" opacity=".09"/><circle cx="130" cy="420" r="1.6" opacity=".1"/><circle cx="100" cy="570" r="1.5" opacity=".08"/><circle cx="150" cy="700" r="1.4" opacity=".08"/><circle cx="870" cy="640" r="1.5" opacity=".08"/><circle cx="930" cy="480" r="1.6" opacity=".09"/><circle cx="310" cy="200" r="1.7" opacity=".1"/><circle cx="560" cy="170" r="1.5" opacity=".09"/><path d="M220 185c.65 4.35.65 4.35 5 5-4.35.65-4.35.65-5 5-.65-4.35-.65-4.35-5-5 4.35-.65 4.35-.65 5-5" opacity=".1"/><path d="M450 106c.52 3.48.52 3.48 4 4-3.48.52-3.48.52-4 4-.52-3.48-.52-3.48-4-4 3.48-.52 3.48-.52 4-4" opacity=".08"/><path d="M680 126c.52 3.48.52 3.48 4 4-3.48.52-3.48.52-4 4-.52-3.48-.52-3.48-4-4 3.48-.52 3.48-.52 4-4" opacity=".09"/><path d="M140 366c.52 3.48.52 3.48 4 4-3.48.52-3.48.52-4 4-.52-3.48-.52-3.48-4-4 3.48-.52 3.48-.52 4-4" opacity=".08"/><path d="M900 346c.52 3.48.52 3.48 4 4-3.48.52-3.48.52-4 4-.52-3.48-.52-3.48-4-4 3.48-.52 3.48-.52 4-4" opacity=".07"/><path d="M160 526.5c.46 3.05.46 3.05 3.5 3.5-3.04.46-3.04.46-3.5 3.5-.45-3.04-.45-3.04-3.5-3.5 3.05-.45 3.05-.45 3.5-3.5" opacity=".07"/><path d="M870 726.5c.46 3.05.46 3.05 3.5 3.5-3.04.46-3.04.46-3.5 3.5-.45-3.04-.45-3.04-3.5-3.5 3.05-.45 3.05-.45 3.5-3.5" opacity=".06"/></g><path fill="url(#glowBehind)" d="M0 0h1024v1024H0z"/><path fill="url(#starGlow)" d="M0 0h1024v1024H0z"/><g style="fill:#fff"><path d="m428.6 283.8 1.8.6-9.6 7.8-6.6 6-4.8 4.2c-7.64 7.38-7.64 7.38-13.2 14.4l-6 7.2c-13.9 19.25-25.84 38.92-34.2 61.2l-2.4 5.4A291 291 0 0 0 344 426l-1.8 7.8c-4.9 34.31-3.03 67.05 4.2 100.8 5.68 19.57 11.64 38.2 22.2 55.8l3.6 6.6c14.23 23.28 31.61 44.46 52.8 61.8l7.8 6.6c31.26 22.33 63.39 36.97 100.8 45.6l4.2 1.2c28.63 4.77 58.39 6.32 87 .6l12-1.8c39.92-9.98 73.9-26.32 106.8-51l6.6-6 4.8-4.2c24.64-22.59 42.28-49.54 56.4-79.8 6.59-18.64 6.59-18.64 11.4-37.8l1.8-5.4h.6c0 36 0 36-1.2 45.6l-.6 7.8c-3.22 20.95-7.55 42.34-16.2 61.8l-3 7.8a268 268 0 0 1-49.2 77.4l-4.2 4.8c-9 9.6-9 9.6-11.4 12h-1.2v1.2l-4.8 4.2-6 5.4c-21.5 17.59-44.24 32.87-69.6 44.4l-9 4.2-10.2 3.6q-7.5 2.68-15 5.4a365 365 0 0 1-45 9.6l-1.8.6-8.4.6-9.6 1.2c-32.8 0-62.42-1.18-94.2-8.4l-.6-.6-6-1.2c-17.4-5.4-17.4-5.4-24.6-8.4l-12.6-4.8c-23.67-11.36-45.18-24.19-66-40.2l-4.8-3.6V756l-2.4-1.2c-18.57-17.02-18.57-17.02-25.2-24.6l-6-6.6c-27-32.99-45.5-68.54-58.2-109.2-9.58-40.73-11.81-80.13-5.4-121.8l1.8-7.8 1.2-6.6 3-10.8 2.4-9c6.86-19.71 6.86-19.71 10.2-26.4l3-7.8c13.44-25.53 28.05-48.7 47.4-70.2l4.2-4.8c9.6-9.6 9.6-9.6 14.4-13.8l6-5.4c21.33-16.76 43.89-32.22 69.6-41.4l7.2-3z"/><path d="M735.2 288h3l-2.4 2.4h-1.2l-1.2 2.4v6l1.8 3 3.6 1.8h6c3.5-2 3.5-2 4.8-4.2.15-5.12.15-5.12-.6-9 2.4 2.4 2.4 2.4 4.2 6v6c-3 4.8-3 4.8-6 7.2l-3 1.2c0 21.8 2.77 44.9 8.4 66l9 4.8c-1.2 2.4-1.2 2.4-6 8.4-4.5 13.48-1.58 28.39-1.8 42.6h11.4c-.6 2.4-.6 2.4-4.2 8.4-8.53 24.18-3.97 51.16-4.2 76.8h12v4.2l-3.6 6c-2.4 4.82-3.44 9.7-4.2 15l-.6 93c-24.9 24.9-53.1 42.73-85.2 57-27.9 9.3-27.9 9.3-38.4 11.4a398 398 0 0 0-10.2 2.4l-10.2 1.2-7.2 1.2c-20.65 2.06-41.98 2.28-62.4-1.8l-9-1.2c-9-1.8-9-1.8-12-3l-10.2-2.4c-7.8-2.4-7.8-2.4-12-4.2l-9-3-6.6-3-5.4-2.4c-29.52-13.98-53.8-32.8-76.8-55.8l-5.4-6.6-4.8-5.4c-12.2-16.56-22.94-33.32-31.2-52.2v-8.4c1.8-3.6 1.8-3.6 6.6-9l16.8-10.8c6.8-5.2 6.8-5.2 12-12 4.69-9.37 5.44-15.15 6-25.8l-3.6-1.2c-2.4-3-2.4-3-3-4.8v-5.4c3-3.6 3-3.6 5.4-4.8h3c-1.8 1.8-1.8 1.8-4.8 4.2v4.8l2.4 2.4h6l2.4-3q-.5-3.6-1.2-7.2c3 3 3 3 4.2 4.8v4.2c-2.4 4.2-2.4 4.2-5.4 6.6H410c.48 9.2.79 14.78 4.8 22.8 8.05 11.07 17.38 17.26 28.8 24.6 5.4 5.4 5.4 5.4 7.8 10.2.6 1.8.6 1.8.6 7.8-3.6 7.2-3.6 7.2-4.8 9H446v1.2h18.6l-.6-8.4-4.2-4.2a54 54 0 0 1-7.2-18.6c0-11.4 0-11.4 2.4-20.4 6.42-11.93 14.52-19.81 25.2-28.2 11.58-9.4 11.58-9.4 22.8-19.2l4.8-4.2c10.07-9.3 17.24-17.69 23.4-30 4.29-13.72 3.72-18.63 4.2-34.8l-4.2-.6c-7.8-2.4-7.8-2.4-15.6-7.8-4.8-5.4-4.8-5.4-9.6-15-1.06-5.3-.6-10.8-.6-16.2 2.4-7.2 2.4-7.2 7.2-14.4 5.24-4.65 10.09-7.96 16.8-10.2h11.4c-2.89 1.44-5.96 2.5-9 3.6-6.92 4.42-6.92 4.42-10.8 11.4-2.34 6.06-2.34 6.06-1.8 15.6 1.68 5.7 1.68 5.7 5.4 11.4 5 4.86 5 4.86 10.2 7.2 6.66 1.41 6.66 1.41 13.8 1.2 8.02-2.55 8.02-2.55 13.8-8.4 3.22-5.2 3.22-5.2 4.2-10.8l1.2-.6c.6 1.8.6 1.8.6 9.6-1.8 6-1.8 6-4.8 11.4a58 58 0 0 1-14.4 10.8c-3.6 1.2-3.6 1.2-10.2 1.8.22 19.4.22 19.4 5.4 37.2 7.74 14.18 19.04 24.98 31.2 35.4v1.2l2.4 1.2 7.8 6.6 8.4 6.6c9.3 7.6 16.88 14.45 23.4 24.6 3.59 8.97 4.2 14.69 4.2 24.6-1.47 7.37-3.11 11.58-7.2 18l-4.2 4.2v8.4h18l-4.8-8.4c-.6-2.4-.6-2.4-.6-8.4 2.4-5.4 2.4-5.4 7.2-10.8 6-4.2 6-4.2 14.4-9 7.2-5.9 11.3-10.03 16.2-18 3.44-8.6 3.08-10.55 3.6-21l-3-1.2c-3-3.6-3-3.6-3.6-5.4v-5.4l1.2-2.4 4.2-2.4h3l-4.8 4.8v4.2l3 2.4h5.4l2.4-2.4v-6h1.2l1.8 3v4.8c-2.4 3.6-2.4 3.6-5.4 6h-1.2c.63 12.63.63 12.63 3 19.8 5.27 8.28 10.18 13.79 18 19.8q5.65 3.4 11.4 6.6c6 5.4 6 5.4 9 10.2.6 2.4.6 2.4.6 10.2-3.6 7.2-3.6 7.2-4.8 8.4l6.6 1.2v53.4h10.2c2.4-51.26 2.4-51.26-3.6-101.4l-4.8-9v-4.2h11.4c2.04-37.75 2.04-37.75-3-74.4l-4.8-9v-1.8h10.8l-.6-40.8-4.8-6-2.4-3 .6-1.8 7.2-3.6c2.7-4.07 2.7-4.07 3.6-14.4l1.2-5.4 1.8-15.6.6-1.8 1.8-17.4 1.8-12-3.6-.6-4.8-4.2c-2.4-6-2.4-6-2.4-10.2l2.4-4.8z"/></g><g fill="#fff"><path d="M770 145c7.5 47 7.5 47 55 55-47.5 8-47.5 8-55 55-7.5-47-7.5-47-55-55 47.5-8 47.5-8 55-55" opacity=".95"/><path d="M865 122c3.2 22.4 3.2 22.4 27 26-23.8 3.6-23.8 3.6-27 26-3.2-22.4-3.2-22.4-27-26 23.8-3.6 23.8-3.6 27-26" opacity=".9"/><path d="M695 128c2.2 15.8 2.2 15.8 18 18-15.8 2.2-15.8 2.2-18 18-2.2-15.8-2.2-15.8-18-18 15.8-2.2 15.8-2.2 18-18" opacity=".85"/><path d="M830 248c1.8 13 1.8 13 15 15-13.2 2-13.2 2-15 15-1.8-13-1.8-13-15-15 13.2-2 13.2-2 15-15" opacity=".75"/><path d="M905 205c1.4 10.4 1.4 10.4 12 12-10.6 1.6-10.6 1.6-12 12-1.4-10.4-1.4-10.4-12-12 10.6-1.6 10.6-1.6 12-12" opacity=".7"/><path d="M740 105c1.3 9.4 1.3 9.4 11 11-9.7 1.6-9.7 1.6-11 11-1.3-9.4-1.3-9.4-11-11 9.7-1.6 9.7-1.6 11-11" opacity=".65"/><path d="M842.73 90.27c-9.58 12.34-9.58 12.34 0 25.46-13.12-9.58-13.12-9.58-25.46 0 9.58-12.34 9.58-12.34 0-25.46 13.12 9.58 13.12 9.58 25.46 0" opacity=".55"/><path d="M907.07 157.93c-5.37 7.07-5.37 7.07 0 14.14-7.07-5.37-7.07-5.37-14.14 0 5.37-7.07 5.37-7.07 0-14.14 7.07 5.37 7.07 5.37 14.14 0" opacity=".5"/><circle cx="675" cy="110" r="3" opacity=".45"/><circle cx="925" cy="190" r="2.5" opacity=".4"/><circle cx="755" cy="88" r="2" opacity=".35"/><circle cx="890" cy="118" r="2.2" opacity=".35"/><circle cx="940" cy="250" r="1.8" opacity=".3"/></g><g fill="#fff"><path d="M185 720c3.5 29 3.5 29 33 33-29.5 4-29.5 4-33 33-3.5-29-3.5-29-33-33 29.5-4 29.5-4 33-33" opacity=".2"/><path d="M140 580c1.6 11.4 1.6 11.4 13 13-11.4 1.6-11.4 1.6-13 13-1.6-11.4-1.6-11.4-13-13 11.4-1.6 11.4-1.6 13-13" opacity=".15"/></g></g></svg>